<?xml version="1.0" standalone="no"?>
<!DOCTYPE svg PUBLIC "-//W3C//DTD SVG 20010904//EN"
 "http://www.w3.org/TR/2001/REC-SVG-20010904/DTD/svg10.dtd">
<svg version="1.0" xmlns="http://www.w3.org/2000/svg"
 width="89.000000pt" height="93.000000pt" viewBox="0 0 89.000000 93.000000"
 preserveAspectRatio="xMidYMid meet">

<g transform="translate(0.000000,93.000000) scale(0.100000,-0.100000)"
fill="#000000" stroke="none">
<path d="M252 684 c-100 -97 -187 -185 -193 -196 -10 -19 9 -41 182 -214 107
-107 201 -194 209 -194 21 0 390 371 390 393 0 20 -364 381 -388 385 -11 2
-89 -66 -200 -174z m248 -124 c0 -6 30 -10 68 -11 l67 -1 -84 -13 c-72 -11
-92 -19 -151 -59 -38 -26 -76 -59 -86 -73 l-17 -27 46 27 c66 39 72 33 7 -8
-54 -35 -80 -43 -80 -26 0 15 78 109 105 127 39 25 25 26 -50 3 -45 -14 -71
-17 -77 -11 -12 12 66 38 143 48 27 4 57 13 66 20 21 16 43 18 43 4z"/>
</g>
</svg>
